/* XPM */
static char * database_xpm[] = {
"16 16 140 2",
"  	c None",
". 	c #FAE697",
"+ 	c #DBC31F",
"@ 	c #C5A200",
"# 	c #C4A000",
"$ 	c #C3A000",
"% 	c #C39F00",
"& 	c #C19D00",
"* 	c #D4B81C",
"= 	c #F9DE84",
"- 	c #FAE696",
"; 	c #DAC31F",
"> 	c #FEF5D7",
", 	c #FEF6DA",
"' 	c #FEFEF8",
") 	c #FEFEF7",
"! 	c #C9A719",
"~ 	c #F7D570",
"{ 	c #D9C11E",
"] 	c #FEF5D6",
"^ 	c #FEF7DE",
"/ 	c #FEF3D1",
"( 	c #FEF1C3",
"_ 	c #FDEEB7",
": 	c #FCEBAC",
"< 	c #FCE99B",
"[ 	c #FCE584",
"} 	c #FCE06A",
"| 	c #EBD9B9",
"1 	c #B98E14",
"2 	c #C29F00",
"3 	c #BF9B00",
"4 	c #FEF4D5",
"5 	c #FDF1C5",
"6 	c #FDEDB5",
"7 	c #FDEAA8",
"8 	c #FDE89B",
"9 	c #FCE587",
"0 	c #FCE172",
"a 	c #FADC5B",
"b 	c #966F00",
"c 	c #8E6600",
"d 	c #C09C00",
"e 	c #FED42D",
"f 	c #D0B21B",
"g 	c #AF8900",
"h 	c #AA8400",
"i 	c #A98400",
"j 	c #A47E00",
"k 	c #BD9315",
"l 	c #F2B11D",
"m 	c #896000",
"n 	c #FFEC9D",
"o 	c #FFF3C2",
"p 	c #FFFCF1",
"q 	c #FFFFFD",
"r 	c #FEFAE9",
"s 	c #FDF3C5",
"t 	c #FCE99A",
"u 	c #FBDD62",
"v 	c #FBCC2E",
"w 	c #EFAD1C",
"x 	c #875E00",
"y 	c #FFF3C3",
"z 	c #FFFDF0",
"A 	c #FFFEFD",
"B 	c #FEFAE8",
"C 	c #FBDE61",
"D 	c #F9CC2D",
"E 	c #EEAD1A",
"F 	c #865E00",
"G 	c #D5BB1D",
"H 	c #FED42C",
"I 	c #FFF2C3",
"J 	c #FFFCF0",
"K 	c #F9CA2D",
"L 	c #EDAB1B",
"M 	c #A4770E",
"N 	c #EBD787",
"O 	c #BB9700",
"P 	c #FED12B",
"Q 	c #FCBC21",
"R 	c #473917",
"S 	c #BE9A00",
"T 	c #F9E18C",
"U 	c #AF8A00",
"V 	c #AA8500",
"W 	c #A98300",
"X 	c #A27C00",
"Y 	c #BC9115",
"Z 	c #EAC158",
"` 	c #775400",
" .	c #FFEC9E",
"..	c #FBDD61",
"+.	c #FACB2D",
"@.	c #886000",
"#.	c #BC9800",
"$.	c #FFEB99",
"%.	c #FFF2C0",
"&.	c #FFFDEF",
"*.	c #FEFAE6",
"=.	c #FDF2C0",
"-.	c #FBE791",
";.	c #FADB5A",
">.	c #F1C129",
",.	c #E7A518",
"'.	c #855C00",
").	c #D0B11B",
"!.	c #FDCC28",
"~.	c #FFEFB6",
"{.	c #FFFBED",
"].	c #FEFEFB",
"^.	c #FDF7E0",
"/.	c #FAEEB4",
"(.	c #F6DE7E",
"_.	c #EDC94B",
":.	c #E3AF21",
"<.	c #DC9814",
"[.	c #966A0B",
"}.	c #F8DA7C",
"|.	c #A27B00",
"1.	c #FDBD21",
"2.	c #F4ECCF",
"3.	c #EEE6CD",
"4.	c #ECE0B7",
"5.	c #EBD691",
"6.	c #E6C864",
"7.	c #DEB63C",
"8.	c #D89513",
"9.	c #7E5400",
"0.	c #8F6F28",
"a.	c #F3CE64",
"b.	c #B08311",
"c.	c #875F00",
"d.	c #845B00",
"e.	c #835A00",
"f.	c #815800",
"g.	c #7F5600",
"h.	c #9C6D0B",
"i.	c #947127",
"    . + @ # $ $ % & * =         ",
"  - ; > , ' ' ' ' ' ) ! ~       ",
"  { ] ^ / ( _ : < [ } | 1       ",
"  2 3 4 5 6 7 8 9 0 a b c       ",
"  d e f g h h h i j k l m       ",
"  3 n o p q r s t u v w x       ",
"  3 n y z A B s t C D E F       ",
"  G H I J q r s t C K L M       ",
"  N O P z q r s t C Q c R       ",
"  S T f U V h h W X Y Z `       ",
"  3  .y p q r s t ..+.w @.      ",
"  #.$.%.&.A *.=.-.;.>.,.'.      ",
"  ).!.~.{.].^./.(._.:.<.[.      ",
"  }.|.1.2.3.4.5.6.7.8.9.0.      ",
"    a.b.c.d.e.e.f.g.h.i.        ",
"                                "};
