/* XPM */
static char *execute[] = {
/* columns rows colors chars-per-pixel */
"22 22 43 1",
"  c black",
". c #040404040404",
"X c #090909090909",
"o c gray5",
"O c gray7",
"+ c #161616161616",
"@ c #1B1B1B1B1B1B",
"# c gray12",
"$ c gray14",
"% c #282828282828",
"& c #2D2D2D2D2D2D",
"* c #313131313131",
"= c #323232323232",
"- c #3A3A3A3A3A3A",
"; c #3F3F3F3F3F3F",
": c #5D5D5D5D5D5D",
"> c gray43",
", c gray44",
"< c #747474747474",
"1 c gray48",
"2 c #838383838383",
"3 c gray52",
"4 c #868686868686",
"5 c #888888888888",
"6 c gray54",
"7 c #8E8E8E8E8E8E",
"8 c #909090909090",
"9 c #929292929292",
"0 c #989898989898",
"q c #9A9A9A9A9A9A",
"w c #A5A5A5A5A5A5",
"e c gray68",
"r c #AFAFAFAFAFAF",
"t c #B7B7B7B7B7B7",
"y c #C1C1C1C1C1C1",
"u c gray77",
"i c #C5C5C5C5C5C5",
"p c gray78",
"a c gainsboro",
"s c gray88",
"d c #E4E4E4E4E4E4",
"f c #EFEFEFEFEFEF",
"g c None",
/* pixels */
"gggggggggggggggggggggg",
"gggggggggggggggggggggg",
"gggggg**gggggggggggggg",
"gggggg*: ggggggggggggg",
"gggggg*i: gggggggggggg",
"gggggg*id: ggggggggggg",
"gggggg&tfa: gggggggggg",
"gggggg%rsta: ggggggggg",
"gggggg$rpq7a: gggggggg",
"gggggg#wpq47a: ggggggg",
"gggggg@qr3239y: gggggg",
"gggggg+9q227r<- gggggg",
"ggggggO3027r<- ggggggg",
"ggggggo147r<- gggggggg",
"gggggg.1qr<- ggggggggg",
"gggggg.<q<- gggggggggg",
"gggggg <<- ggggggggggg",
"gggggg >- gggggggggggg",
"gggggg ; ggggggggggggg",
"gggggg  gggggggggggggg",
"gggggggggggggggggggggg",
"gggggggggggggggggggggg"
};
