/* XPM */
static char * table_xpm[] = {
"16 16 154 2",
"  	c None",
". 	c #3740D6",
"+ 	c #3942DD",
"@ 	c #2E35B2",
"# 	c #5064E1",
"$ 	c #4B62E1",
"% 	c #4C62E1",
"& 	c #4D63E1",
"* 	c #4E63E1",
"= 	c #4E64E1",
"- 	c #5167EA",
"; 	c #4454BB",
"> 	c #9DC0F7",
", 	c #D7DEF8",
"' 	c #CED8F7",
") 	c #CDD9F7",
"! 	c #CFDBF9",
"~ 	c #C8D6F7",
"{ 	c #C1D1F6",
"] 	c #C0D1F7",
"^ 	c #BFD1F8",
"/ 	c #B7CCF6",
"( 	c #B1C8F5",
"_ 	c #B3CEFC",
": 	c #7799CD",
"< 	c #B6DBFC",
"[ 	c #F0F3F6",
"} 	c #C4D4EA",
"| 	c #C6D6E8",
"1 	c #F7FBFD",
"2 	c #D0E0F2",
"3 	c #B1C8E7",
"4 	c #C0D5EB",
"5 	c #E0EEFD",
"6 	c #B3CEEE",
"7 	c #9DBCE6",
"8 	c #B9D5F5",
"9 	c #84AACE",
"0 	c #B0D5F8",
"a 	c #E9EEF7",
"b 	c #C3D3EC",
"c 	c #C3D1E4",
"d 	c #E7EFF8",
"e 	c #CBDCF4",
"f 	c #AFC7E9",
"g 	c #B8CDE6",
"h 	c #D1E3F9",
"i 	c #AFCAF0",
"j 	c #9CBAE6",
"k 	c #AFCBF0",
"l 	c #7FA5C9",
"m 	c #AFD3F4",
"n 	c #E9EEF9",
"o 	c #C7D7EF",
"p 	c #C4D2E6",
"q 	c #E2ECF8",
"r 	c #CBDDF5",
"s 	c #B1CAEB",
"t 	c #B7CCE8",
"u 	c #CCE0F9",
"v 	c #AFCDF2",
"w 	c #9DBDE8",
"x 	c #ACCBF0",
"y 	c #7FA2C5",
"z 	c #AECFF0",
"A 	c #DFE8F6",
"B 	c #B1C8E8",
"C 	c #B5C8E2",
"D 	c #DEEBF9",
"E 	c #BCD3F2",
"F 	c #9DBBE4",
"G 	c #ABC4E4",
"H 	c #C8DEFA",
"I 	c #A0C1ED",
"J 	c #8DB0E2",
"K 	c #A6C7EF",
"L 	c #7D9EC1",
"M 	c #AAC9EB",
"N 	c #E0EAF7",
"O 	c #BACEEC",
"P 	c #B8CAE4",
"Q 	c #D9E7F9",
"R 	c #BFD5F3",
"S 	c #A4C1E8",
"T 	c #ABC6E6",
"U 	c #C2DBF9",
"V 	c #A5C5F0",
"W 	c #93B7E6",
"X 	c #A5C6EF",
"Y 	c #7A99BD",
"Z 	c #A4C2E6",
"` 	c #DEE9F9",
" .	c #BBD0EE",
"..	c #B7CBE6",
"+.	c #D3E3F8",
"@.	c #BDD5F4",
"#.	c #A5C2EA",
"$.	c #AAC5E7",
"%.	c #BFD9F9",
"&.	c #A5C6F2",
"*.	c #94B8E8",
"=.	c #A4C5F0",
"-.	c #7593B7",
";.	c #A0BCE2",
">.	c #D4E3F7",
",.	c #A7C2E8",
"'.	c #A9C1E2",
").	c #D0E2F8",
"!.	c #B0CBF1",
"~.	c #92B4E4",
"{.	c #A0BEE5",
"].	c #BCD7F9",
"^.	c #98BCED",
"/.	c #85ADE2",
"(.	c #A0C2EE",
"_.	c #728EB3",
":.	c #9CB5DC",
"<.	c #D1E2F9",
"[.	c #AEC7EA",
"}.	c #ADC4E3",
"|.	c #C9DEF7",
"1.	c #B0CDF3",
"2.	c #9ABBE7",
"3.	c #A1BFE5",
"4.	c #B6D4F9",
"5.	c #99BFEF",
"6.	c #8EB3E4",
"7.	c #A2C4ED",
"8.	c #6E87AE",
"9.	c #9BB3DF",
"0.	c #CFE4FD",
"a.	c #A9C3E7",
"b.	c #ACC4E5",
"c.	c #C5DDFB",
"d.	c #ACCCF5",
"e.	c #96B8E3",
"f.	c #A1C0E8",
"g.	c #B3D5FD",
"h.	c #98BEEF",
"i.	c #8EB2E2",
"j.	c #A6C9F3",
"k.	c #7086AF",
"l.	c #687DA7",
"m.	c #6E83A9",
"n.	c #6C80A4",
"o.	c #6A7EA3",
"p.	c #697EA6",
"q.	c #6C81A7",
"r.	c #687DA4",
"s.	c #697FA7",
"t.	c #6B80A6",
"u.	c #697DA3",
"v.	c #6C82AA",
"w.	c #546689",
"                                ",
"  . . . . . . . . . . . + @     ",
"  # $ % % % % & & & * = - ;     ",
"  > , ' ) ! ~ { ] ^ / ( _ :     ",
"  < [ } | 1 2 3 4 5 6 7 8 9     ",
"  0 a b c d e f g h i j k l     ",
"  m n o p q r s t u v w x y     ",
"  z A B C D E F G H I J K L     ",
"  M N O P Q R S T U V W X Y     ",
"  Z `  ...+.@.#.$.%.&.*.=.-.    ",
"  ;.>.,.'.).!.~.{.].^./.(._.    ",
"  :.<.[.}.|.1.2.3.4.5.6.7.8.    ",
"  9.0.a.b.c.d.e.f.g.h.i.j.k.    ",
"  l.m.n.o.p.q.o.r.s.t.u.v.w.    ",
"                                ",
"                                "};
