/* XPM */
static char * view_xpm[] = {
"16 16 142 2",
"  	c None",
". 	c #0B6BFC",
"+ 	c #1877F9",
"@ 	c #0078DE",
"# 	c #60CACB",
"$ 	c #4FC3D8",
"% 	c #53C3D4",
"& 	c #58C1D1",
"* 	c #59C6D0",
"= 	c #70C4C5",
"- 	c #00B7FC",
"; 	c #B2E4AB",
"> 	c #E3F8D1",
", 	c #DEF5CA",
"' 	c #DCF5CA",
") 	c #DDF6CD",
"! 	c #D8F3C6",
"~ 	c #D4F1C0",
"{ 	c #D2F1C0",
"] 	c #D2F0C1",
"^ 	c #C9EEB9",
"/ 	c #C6ECB5",
"( 	c #BEECBD",
"_ 	c #70D26D",
": 	c #C3EFBE",
"< 	c #F5FDE4",
"[ 	c #D3F1B8",
"} 	c #D4F2B7",
"| 	c #F9FEF1",
"1 	c #DFF6C7",
"2 	c #C3EBA8",
"3 	c #CFF1B4",
"4 	c #E7FADD",
"5 	c #C6EDAE",
"6 	c #B0E39A",
"7 	c #CBF0B9",
"8 	c #8DD776",
"9 	c #C1EEB5",
"0 	c #F1FCDF",
"a 	c #D2F0B1",
"b 	c #EEFBDE",
"c 	c #DBF5C4",
"d 	c #C1EBA8",
"e 	c #C9EDAC",
"f 	c #DFF7CE",
"g 	c #C2ECAD",
"h 	c #B2E39A",
"i 	c #81D56E",
"j 	c #C1EEAF",
"k 	c #F1FCE1",
"l 	c #D8F3BE",
"m 	c #D2F0B5",
"n 	c #ECFBDA",
"o 	c #DBF5C6",
"p 	c #C5ECAB",
"q 	c #C8EDAC",
"r 	c #DAF5CA",
"s 	c #C1EDAE",
"t 	c #B2E39C",
"u 	c #C1EBAC",
"v 	c #81D56A",
"w 	c #C0EDAC",
"x 	c #E9FAD5",
"y 	c #C6EBA6",
"z 	c #E8FAD7",
"A 	c #CEF1B8",
"B 	c #B1E398",
"C 	c #BDE8A1",
"D 	c #D7F5C8",
"E 	c #B5E6A1",
"F 	c #A0DC8D",
"G 	c #B9E9A6",
"H 	c #7DD366",
"I 	c #BCEAA5",
"J 	c #EAFAD7",
"K 	c #CDEFB2",
"L 	c #C8EDAA",
"M 	c #E5F9D4",
"N 	c #D0F2BB",
"O 	c #B9E7A0",
"P 	c #BDE9A2",
"Q 	c #D1F3C2",
"R 	c #B9E8A7",
"S 	c #A7E093",
"T 	c #76D060",
"U 	c #BAE69F",
"V 	c #CDEFB4",
"W 	c #CFF1BA",
"X 	c #B9E7A2",
"Y 	c #BDE8A3",
"Z 	c #CFF2C1",
"` 	c #B9E8A9",
" .	c #ABE196",
"..	c #6CCF58",
"+.	c #B5E499",
"@.	c #E1F8CD",
"#.	c #BCE7A2",
"$.	c #BBE69F",
"%.	c #DEF7CC",
"&.	c #C4ECAF",
"*.	c #A6DF92",
"=.	c #B3E49B",
"-.	c #CBF1BE",
";.	c #ADE39C",
">.	c #93DA87",
",.	c #B6E6A3",
"'.	c #5FCF50",
").	c #B2E093",
"!.	c #DEF7CE",
"~.	c #C0E8A3",
"{.	c #D9F5C6",
"].	c #C3EDB0",
"^.	c #AFE299",
"/.	c #B6E49D",
"(.	c #C6EFBA",
"_.	c #AFE49F",
":.	c #A2DE8F",
"<.	c #B5E7A2",
"[.	c #51D047",
"}.	c #B1E095",
"|.	c #DBF6D1",
"1.	c #D5F4C7",
"2.	c #BFECAF",
"3.	c #AAE192",
"4.	c #B5E59E",
"5.	c #BEEDC2",
"6.	c #AEE39E",
"7.	c #9EDE8D",
"8.	c #B9E9AA",
"9.	c #58CE4B",
"0.	c #33D637",
"a.	c #4ED140",
"b.	c #43D833",
"c.	c #37DC2B",
"d.	c #35D435",
"e.	c #44D439",
"f.	c #34D631",
"g.	c #37D437",
"h.	c #41D536",
"i.	c #37D82F",
"j.	c #47D140",
"k.	c #00D700",
"                                ",
"  . . . . . . . . . . . + @     ",
"  # $ % % % % & & & * * = -     ",
"  ; > , ' ) ! ~ { ] ^ / ( _     ",
"  : < [ } | 1 2 3 4 5 6 7 8     ",
"  9 0 [ a b c d e f g h g i     ",
"  j k l m n o p q r s t u v     ",
"  w x 2 y z A B C D E F G H     ",
"  I J K L M N O P Q R S G T     ",
"  U z V L f W X Y Z `  .G ..    ",
"  +.@.#.$.%.&.*.=.-.;.>.,.'.    ",
"  ).!.d ~.{.].^./.(._.:.<.[.    ",
"  }.|.Y ~.1.2.3.4.5.6.7.8.9.    ",
"  0.a.b.c.d.e.c.f.g.h.i.j.k.    ",
"                                ",
"                                "};
